<?xml version="1.0"?>
<svg xmlns="http://www.w3.org/2000/svg" xmlns:xlink="http://www.w3.org/1999/xlink" version="1.1" viewBox="0 0 480.005 480.005" enable-background="new 0 0 480.005 480.005" width="512px" height="512px"><g><path d="m475.129,94.098l-1.678-8.482-8.635,.435c-1.327,0.067-32.946,1.771-72.707,13.517-23.235,6.864-44.382,15.774-63.059,26.493-27.264-66.798-80.151-113.056-82.506-115.092l-6.54-5.655-6.541,5.655c-2.368,2.047-55.25,48.304-82.506,115.092-18.677-10.719-39.824-19.629-63.059-26.493-39.762-11.746-71.381-13.45-72.708-13.517l-8.635-.435-1.678,8.482c-0.258,1.303-6.292,32.389-4.566,73.813 2.276,54.638 17.263,101.483 43.348,135.63-25.319,17.852-38.631,38.872-38.631,61.268 0,30.872 25.512,59.2 71.836,79.767 43.742,19.42 101.679,30.115 163.14,30.115 61.46,0 119.397-10.695 163.139-30.115 46.325-20.566 71.836-48.895 71.836-79.767 0-22.396-13.313-43.416-38.631-61.268 26.085-34.147 41.072-80.992 43.348-135.63 1.725-41.425-4.309-72.51-4.567-73.813zm-235.127-61.878c15.007,14.622 52.094,54.144 71.843,104.723-14.357,9.981-26.877,21.188-37.331,33.481-10.043-21.98-27.061-36.894-27.972-37.682l-6.54-5.655-6.541,5.655c-0.911,0.788-17.93,15.701-27.972,37.682-10.454-12.294-22.974-23.5-37.33-33.48 19.755-50.584 56.841-90.107 71.843-104.724zm20.245,157.587c-8.165,12.844-14.943,27.059-20.285,42.575-5.342-15.498-12.105-29.743-20.21-42.548 3.741-15.032 13.59-27.953 20.251-35.343 6.659,7.389 16.497,20.297 20.244,35.316zm-239.934-22.243c-1.146-26.563 1.162-48.98 2.783-60.74 29.029,3.195 121.761,18.146 171.126,81.41 30.408,38.97 38.619,89.507 40.152,125.04 1.162,26.924-1.225,49.59-2.848,61.214-27.897-1.692-116.957-12.547-171.062-81.885-30.407-38.97-38.617-89.506-40.151-125.039zm434.665,197.245c0,22.161-21.852,44.572-59.952,61.487-41.243,18.311-96.298,28.395-155.024,28.395-58.726,0-113.781-10.084-155.024-28.395-38.1-16.915-59.952-39.327-59.952-61.487 0-11.389 5.714-28.247 31.635-45.956 70.41,75.018 178.513,75.946 183.341,75.946 4.828,0 112.931-0.927 183.341-75.946 25.921,17.709 31.635,34.568 31.635,45.956zm4.714-197.245c-1.534,35.533-9.744,86.069-40.151,125.039-52.139,66.818-136.739,79.326-167.784,81.662 1.693-13 3.714-35.094 2.621-61.338-0.584-14.017-2.005-27.525-4.234-40.435 6.191-33.539 18.178-61.879 35.639-84.258 30.408-38.97 77.432-59.221 111.525-69.347 25.492-7.572 47.801-10.783 59.6-12.069 1.621,11.76 3.93,34.18 2.784,60.746z" /></g> </svg>
